# xmcd
# 
# Track frame offsets:
#     150
#     16152
#     29784
#     47515
#     65674
#     85902
#     100732
#     121423
#     142056
#     160342
#     187184
#     203490
#     220597
#     242092
#     260161
#     279055
#     298225
# 
# Disc length: 4266
# 
# Revision: 7
# Processed by: cddbd v1.5.2PL0 Copyright (c) Steve Scherf et al.
# Submitted via: fre:ac v1.0.27
# 
DISCID=0010a811
DTITLE=Sugarland - Love On The Inside
DYEAR=2008
DGENRE=Country
TTITLE0=All I Want To Do
TTITLE1=It Happens
TTITLE2=We Run
TTITLE3=Joey
TTITLE4=Love
TTITLE5=Genevieve
TTITLE6=Already Gone
TTITLE7=Keep You
TTITLE8=Take Me As I Am
TTITLE9=What I'd Give
TTITLE10=Steve Earle
TTITLE11=Very Last Country Song
TTITLE12=Fall Into Me
TTITLE13=Operation: Working Vacation
TTITLE14=Wishing
TTITLE15=Life In A Northern Town (Feat. Little Big Town and Jake Owen) [Live]
TTITLE16=Come On Get Higher [Live]
EXTD=YEAR: 2008
EXTT0=
EXTT1=
EXTT2=
EXTT3=
EXTT4=
EXTT5=
EXTT6=
EXTT7=
EXTT8=
EXTT9=
EXTT10=
EXTT11=
EXTT12=
EXTT13=
EXTT14=
EXTT15=
EXTT16=
PLAYORDER=
